<?xml version="1.0" standalone="no"?>
<!DOCTYPE svg PUBLIC "-//W3C//DTD SVG 20010904//EN"
 "http://www.w3.org/TR/2001/REC-SVG-20010904/DTD/svg10.dtd">
<svg version="1.0" xmlns="http://www.w3.org/2000/svg"
 width="1024.000000pt" height="1024.000000pt" viewBox="0 0 1024.000000 1024.000000"
 preserveAspectRatio="xMidYMid meet">

<g transform="translate(0.000000,1024.000000) scale(0.100000,-0.100000)"
fill="#000000" stroke="none">
<path d="M4805 7043 c-69 -10 -246 -57 -335 -90 -327 -121 -627 -330 -855
-595 -184 -214 -302 -421 -389 -678 -60 -180 -80 -282 -81 -412 0 -102 1 -108
30 -149 48 -67 80 -79 218 -79 209 0 247 34 286 251 57 318 202 584 447 819
203 194 418 311 691 376 135 32 177 49 212 90 39 44 51 90 51 199 0 118 -13
161 -64 211 -55 56 -110 71 -211 57z"/>
<path d="M5335 7023 c-86 -45 -104 -90 -105 -251 0 -204 28 -238 237 -288 149
-34 209 -56 348 -124 420 -207 732 -624 804 -1076 16 -101 30 -143 63 -180 51
-58 78 -67 208 -66 124 0 160 9 203 50 59 56 71 106 56 240 -35 328 -194 702
-413 972 -208 257 -497 478 -791 603 -269 115 -525 165 -610 120z"/>
<path d="M5023 6250 c-289 -31 -545 -152 -744 -352 -140 -141 -237 -296 -302
-484 -143 -409 -60 -832 232 -1182 144 -173 405 -332 641 -391 109 -27 159
-33 299 -32 246 1 363 45 385 146 10 45 -29 114 -77 138 -36 19 -44 19 -125 7
-255 -39 -503 10 -699 139 -170 111 -294 262 -364 440 -89 229 -93 438 -10
671 47 133 106 225 216 336 201 202 431 293 715 281 247 -10 432 -91 636 -279
40 -36 82 -69 94 -73 62 -20 151 36 170 106 16 58 -13 116 -103 201 -177 171
-428 290 -675 323 -115 16 -176 17 -289 5z"/>
<path d="M5035 5693 c-188 -25 -374 -153 -483 -334 -130 -214 -110 -588 33
-615 42 -7 67 0 106 33 l30 26 17 -24 c33 -48 128 -141 174 -171 26 -17 48
-34 48 -37 -1 -3 -7 -17 -15 -31 -37 -64 -5 -137 73 -167 60 -23 209 -23 306
1 93 22 234 98 299 160 216 208 270 541 130 809 -57 109 -183 231 -294 285
-47 23 -116 49 -155 57 -64 14 -197 18 -269 8z m288 -298 c256 -126 316 -462
116 -656 -126 -123 -337 -153 -484 -69 -69 39 -150 127 -183 197 -24 51 -27
70 -27 158 1 120 23 188 86 259 94 107 192 148 339 143 80 -3 104 -8 153 -32z"/>
<path d="M6175 5326 c-17 -7 -44 -28 -59 -47 l-28 -33 7 -140 c5 -94 3 -167
-5 -220 -25 -163 -96 -326 -200 -455 -72 -89 -82 -125 -52 -186 15 -32 32 -48
67 -65 42 -20 51 -21 87 -11 54 17 106 66 176 169 168 246 245 530 213 791
-14 113 -39 165 -93 192 -43 22 -71 23 -113 5z"/>
<path d="M3281 4889 c-70 -15 -125 -79 -136 -157 -14 -103 62 -373 165 -586
169 -351 383 -600 695 -811 253 -170 636 -313 850 -318 86 -1 144 26 190 91
30 44 30 44 30 181 0 134 -1 139 -28 180 -34 52 -75 77 -147 91 -172 34 -359
102 -507 186 -344 194 -602 532 -698 914 -53 209 -93 242 -278 239 -56 -1
-117 -6 -136 -10z"/>
<path d="M6761 4890 c-74 -18 -120 -75 -146 -182 -69 -285 -181 -497 -368
-694 -217 -229 -486 -378 -803 -443 -107 -22 -145 -40 -177 -83 -33 -45 -38
-72 -38 -203 0 -148 25 -206 104 -246 117 -60 485 32 797 198 205 110 443 307
593 491 186 228 324 502 398 790 55 215 32 318 -84 367 -39 16 -214 20 -276 5z"/>
<path d="M3203 2373 l-43 -4 0 -164 0 -163 40 -4 40 -4 0 111 1 110 33 -85
c48 -127 51 -130 94 -130 l37 0 35 108 34 107 7 -108 c3 -59 8 -109 10 -111 2
-2 20 -1 39 1 l35 5 -3 166 c-2 92 -5 168 -5 168 -1 1 -27 -1 -59 -3 -40 -4
-58 -10 -61 -22 -3 -9 -21 -58 -39 -109 l-34 -93 -46 113 c-26 65 -51 113 -59
114 -8 0 -33 -1 -56 -3z"/>
<path d="M3763 2373 c-12 -2 -24 -10 -26 -16 -5 -12 -57 -139 -103 -251 -13
-33 -24 -61 -24 -63 0 -2 20 -3 44 -3 39 0 45 3 48 23 3 19 11 23 68 30 81 10
106 4 114 -27 5 -21 13 -25 56 -28 27 -1 49 -1 47 2 -21 42 -83 178 -113 249
-41 97 -42 97 -111 84z m47 -139 c11 -26 20 -50 20 -54 0 -5 -20 -10 -45 -12
-25 -2 -44 -1 -42 2 1 3 11 29 22 58 11 28 21 52 22 52 1 0 11 -21 23 -46z"/>
<path d="M4024 2371 c-2 -2 -4 -78 -4 -168 l0 -163 45 0 45 0 0 45 0 45 45 0
c95 0 155 49 155 127 0 38 -34 91 -68 105 -25 11 -208 19 -218 9z m187 -82
c13 -20 11 -63 -3 -77 -7 -7 -31 -12 -55 -12 l-43 0 0 56 0 57 46 -6 c26 -2
50 -11 55 -18z"/>
<path d="M4488 2330 c-1 -25 -2 -100 -2 -167 l-1 -123 43 0 42 0 0 168 0 168
-40 -1 -40 0 -2 -45z"/>
<path d="M4683 2366 c-17 -8 -36 -23 -42 -35 -26 -48 -1 -121 46 -139 15 -5
46 -16 68 -24 28 -10 40 -20 40 -33 0 -28 -44 -31 -92 -6 l-39 19 -19 -34
c-21 -38 -22 -35 24 -59 43 -22 118 -22 159 -1 33 17 62 61 62 94 0 28 -35 68
-72 82 -89 33 -109 44 -106 59 4 23 64 26 95 6 13 -9 26 -15 27 -13 2 2 10 18
19 36 16 33 16 33 -11 44 -44 18 -124 20 -159 4z"/>
<path d="M5070 2208 l0 -168 88 0 c48 0 97 -3 110 -6 20 -6 22 -3 22 34 l0 41
-67 3 -68 3 -2 129 -1 129 -41 1 -41 1 0 -167z"/>
<path d="M5415 2368 c-88 -31 -129 -132 -90 -225 30 -71 80 -105 155 -105 75
0 134 40 165 114 28 69 -15 177 -85 213 -33 17 -101 18 -145 3z m114 -81 c29
-24 43 -76 31 -113 -22 -67 -82 -83 -131 -35 -63 63 -19 183 61 165 14 -3 31
-11 39 -17z"/>
<path d="M5754 2322 c-13 -30 -24 -56 -24 -58 0 -2 -20 -49 -45 -104 -25 -55
-45 -105 -45 -110 0 -6 18 -10 39 -10 34 0 42 4 53 28 12 26 17 27 89 30 l77
3 10 -30 c9 -25 16 -29 56 -32 25 -3 46 -1 46 2 0 4 -15 40 -34 80 -19 41 -52
115 -73 164 l-39 90 -43 0 c-43 1 -43 0 -67 -53z m91 -97 c13 -27 23 -51 21
-53 -2 -2 -24 -2 -49 0 l-44 3 20 53 c11 29 21 51 23 49 2 -2 15 -26 29 -52z"/>
<path d="M6050 2208 l0 -168 88 0 c136 1 207 45 219 140 19 137 -64 206 -236
198 l-71 -3 0 -167z m197 70 c26 -21 34 -57 23 -99 -13 -49 -46 -71 -97 -67
l-38 3 -3 70 c-4 84 2 112 26 117 22 5 70 -8 89 -24z"/>
<path d="M6458 2373 l-48 -4 0 -165 0 -164 45 0 44 0 3 116 3 116 99 -116 c94
-111 100 -116 137 -116 l39 0 0 168 0 168 -40 -4 -40 -4 0 -99 0 -100 -83 103
c-46 57 -90 103 -98 104 -8 0 -35 -1 -61 -3z"/>
<path d="M6946 2370 c-94 -28 -137 -175 -76 -259 44 -62 126 -85 238 -66 l42
7 0 94 0 94 -66 0 -65 0 3 -32 c2 -25 8 -33 23 -33 27 0 38 -20 24 -46 -9 -18
-17 -21 -52 -16 -51 7 -97 53 -97 96 0 68 86 119 149 88 28 -14 31 -14 55 14
14 16 26 31 26 33 0 2 -21 11 -47 20 -50 17 -111 19 -157 6z"/>
</g>
</svg>
